<?xml version="1.0" encoding="UTF-8" standalone="no"?><!DOCTYPE svg PUBLIC "-//W3C//DTD SVG 1.1//EN" "http://www.w3.org/Graphics/SVG/1.1/DTD/svg11.dtd"><svg width="100%" height="100%" viewBox="0 0 50 50" version="1.1" xmlns="http://www.w3.org/2000/svg" xmlns:xlink="http://www.w3.org/1999/xlink" xml:space="preserve" xmlns:serif="http://www.serif.com/" style="fill-rule:evenodd;clip-rule:evenodd;stroke-linejoin:round;stroke-miterlimit:2;"><path d="M8.333,21.024l-0.049,0.013l-1.617,-6.037l32.197,-8.627l1.618,6.037l-31.437,8.423l32.622,0l-0,25l-33.334,0l0,-24.809Zm22.642,-9.841c-0.074,-0.278 -0.36,-0.443 -0.638,-0.369l-1.006,0.27c-0.278,0.074 -0.443,0.36 -0.368,0.638l0.269,1.006c0.075,0.278 0.361,0.443 0.638,0.368l1.006,-0.269c0.278,-0.075 0.443,-0.361 0.369,-0.638l-0.27,-1.006Zm-13.059,3.499c-0.074,-0.278 -0.36,-0.443 -0.638,-0.369l-1.006,0.27c-0.278,0.074 -0.443,0.36 -0.368,0.638l0.269,1.006c0.075,0.278 0.361,0.443 0.638,0.368l1.006,-0.269c0.278,-0.075 0.443,-0.36 0.369,-0.638l-0.27,-1.006Zm19.589,-5.249c-0.075,-0.278 -0.361,-0.443 -0.638,-0.368l-1.006,0.269c-0.278,0.075 -0.443,0.361 -0.369,0.638l0.27,1.006c0.074,0.278 0.36,0.443 0.638,0.369l1.006,-0.27c0.278,-0.074 0.443,-0.36 0.368,-0.638l-0.269,-1.006Zm-13.059,3.499c-0.075,-0.277 -0.361,-0.443 -0.638,-0.368l-1.006,0.269c-0.278,0.075 -0.443,0.361 -0.369,0.638l0.27,1.007c0.074,0.277 0.36,0.442 0.638,0.368l1.006,-0.27c0.278,-0.074 0.443,-0.36 0.368,-0.638l-0.269,-1.006Zm-13.059,3.499c-0.075,-0.277 -0.361,-0.442 -0.638,-0.368l-1.006,0.27c-0.278,0.074 -0.443,0.36 -0.369,0.638l0.27,1.006c0.074,0.277 0.36,0.442 0.638,0.368l1.006,-0.27c0.278,-0.074 0.443,-0.36 0.368,-0.637l-0.269,-1.007Zm14.647,25.756c0,-0.287 -0.233,-0.52 -0.521,-0.52l-1.041,-0c-0.288,-0 -0.521,0.233 -0.521,0.52l-0,1.042c-0,0.288 0.233,0.521 0.521,0.521l1.041,-0c0.288,-0 0.521,-0.233 0.521,-0.521l0,-1.042Zm-13.52,0c0,-0.287 -0.233,-0.52 -0.52,-0.52l-1.042,-0c-0.288,-0 -0.521,0.233 -0.521,0.52l0,1.042c0,0.288 0.233,0.521 0.521,0.521l1.042,-0c0.287,-0 0.52,-0.233 0.52,-0.521l0,-1.042Zm6.76,0c0,-0.287 -0.233,-0.52 -0.521,-0.52l-1.041,-0c-0.288,-0 -0.521,0.233 -0.521,0.52l-0,1.042c-0,0.288 0.233,0.521 0.521,0.521l1.041,-0c0.288,-0 0.521,-0.233 0.521,-0.521l0,-1.042Zm-6.76,-18.653c0,-0.288 -0.233,-0.521 -0.52,-0.521l-1.042,0c-0.288,0 -0.521,0.233 -0.521,0.521l0,1.042c0,0.287 0.233,0.52 0.521,0.52l1.042,0c0.287,0 0.52,-0.233 0.52,-0.52l0,-1.042Zm11.79,10.558l0,2.415l1.421,-0l-0,-2.415l2.414,-0l0,-1.421l-2.414,0l-0,-2.414l-1.421,-0l0,2.414l-2.415,0l0,1.421l2.415,-0Zm15.25,8.095c-0,-0.287 -0.234,-0.52 -0.521,-0.52l-1.042,-0c-0.287,-0 -0.521,0.233 -0.521,0.52l0,1.042c0,0.288 0.234,0.521 0.521,0.521l1.042,-0c0.287,-0 0.521,-0.233 0.521,-0.521l-0,-1.042Zm-6.76,-18.653c-0,-0.288 -0.233,-0.521 -0.521,-0.521l-1.042,0c-0.287,0 -0.52,0.233 -0.52,0.521l-0,1.042c-0,0.287 0.233,0.52 0.52,0.52l1.042,0c0.288,0 0.521,-0.233 0.521,-0.52l-0,-1.042Zm-13.52,-0c0,-0.288 -0.233,-0.521 -0.521,-0.521l-1.041,0c-0.288,0 -0.521,0.233 -0.521,0.521l-0,1.042c-0,0.287 0.233,0.52 0.521,0.52l1.041,0c0.288,0 0.521,-0.233 0.521,-0.52l0,-1.042Zm20.28,-0c-0,-0.288 -0.234,-0.521 -0.521,-0.521l-1.042,0c-0.287,0 -0.521,0.233 -0.521,0.521l0,1.042c0,0.287 0.234,0.52 0.521,0.52l1.042,0c0.287,0 0.521,-0.233 0.521,-0.52l-0,-1.042Zm-13.52,-0c0,-0.288 -0.233,-0.521 -0.521,-0.521l-1.041,0c-0.288,0 -0.521,0.233 -0.521,0.521l-0,1.042c-0,0.287 0.233,0.52 0.521,0.52l1.041,0c0.288,0 0.521,-0.233 0.521,-0.52l0,-1.042Zm6.76,18.653c-0,-0.287 -0.233,-0.52 -0.521,-0.52l-1.042,-0c-0.287,-0 -0.52,0.233 -0.52,0.52l-0,1.042c-0,0.288 0.233,0.521 0.52,0.521l1.042,-0c0.288,-0 0.521,-0.233 0.521,-0.521l-0,-1.042Z"/></svg>