<?xml version="1.0" encoding="UTF-8" standalone="no"?><!DOCTYPE svg PUBLIC "-//W3C//DTD SVG 1.1//EN" "http://www.w3.org/Graphics/SVG/1.1/DTD/svg11.dtd"><svg width="100%" height="100%" viewBox="0 0 50 50" version="1.1" xmlns="http://www.w3.org/2000/svg" xmlns:xlink="http://www.w3.org/1999/xlink" xml:space="preserve" xmlns:serif="http://www.serif.com/" style="fill-rule:evenodd;clip-rule:evenodd;stroke-linejoin:round;stroke-miterlimit:2;"><path d="M32.727,6.954l11.779,0.001l1.478,1.478l0.001,11.778l-0,1.474l-22.096,22.097l-1.474,-0l-13.258,-13.259l0,-1.473l22.096,-22.096l1.474,-0Zm8.101,5.156c-0.813,-0.813 -2.133,-0.813 -2.946,0c-0.813,0.813 -0.813,2.133 0,2.947c0.813,0.813 2.133,0.813 2.946,-0c0.813,-0.814 0.813,-2.134 0,-2.947Zm-21.34,30.195l-0.741,0.741l-1.474,0l-13.258,-13.258l0,-1.473l22.096,-22.097l1.474,0l1.457,0.001l-22.084,22.084l0,1.473l12.53,12.529Z"/></svg>