<?xml version="1.0" encoding="UTF-8" standalone="no"?><!DOCTYPE svg PUBLIC "-//W3C//DTD SVG 1.1//EN" "http://www.w3.org/Graphics/SVG/1.1/DTD/svg11.dtd"><svg width="100%" height="100%" viewBox="0 0 50 50" version="1.1" xmlns="http://www.w3.org/2000/svg" xmlns:xlink="http://www.w3.org/1999/xlink" xml:space="preserve" xmlns:serif="http://www.serif.com/" style="fill-rule:evenodd;clip-rule:evenodd;stroke-linejoin:round;stroke-miterlimit:2;"><path d="M35.412,12.401l2.154,0l-0,2.177l-27.111,-0l0,-2.177l2.154,0l2.235,-4.053l6.06,0l0.607,-2.07l5,0l0.606,2.07l6.06,0l2.235,4.053Zm0.057,2.18l-1.146,27.045l-20.625,-0l-1.146,-27.045l22.917,0Zm-15.481,18.505l3.17,-0l-0,-0.975l-2.195,-0l0,-1.952l0.487,0l-0.973,-1.46l-0.974,1.46l0.487,0l-0.001,1.952l-0.001,0.975Zm8.045,-8.043l-3.169,0l-0,0.975l2.194,0l-0,1.952l-0.487,-0l0.973,1.46l0.974,-1.46l-0.487,-0l0.001,-1.952l0.001,-0.975Zm-8.044,-0.002l0,3.17l0.975,-0l0,-2.194l1.952,-0l-0,0.487l1.46,-0.974l-1.46,-0.974l-0,0.487l-1.952,-0.001l-0.975,-0.001Zm13.372,-10.385l-18.701,-0l-0,1.055l18.701,0l0,-1.055Zm-5.329,18.431l-0,-3.17l-0.975,0l-0,2.195l-1.952,-0l0,-0.487l-1.46,0.973l1.46,0.974l0,-0.487l1.952,0.001l0.975,0.001Z"/></svg>