<?xml version="1.0" encoding="UTF-8" standalone="no"?>
<!DOCTYPE svg PUBLIC "-//W3C//DTD SVG 1.1//EN" "http://www.w3.org/Graphics/SVG/1.1/DTD/svg11.dtd">
<svg width="100%" height="100%" viewBox="0 0 24 24" version="1.1" xmlns="http://www.w3.org/2000/svg" xmlns:xlink="http://www.w3.org/1999/xlink" xml:space="preserve" xmlns:serif="http://www.serif.com/" style="fill-rule:evenodd;clip-rule:evenodd;stroke-linejoin:round;stroke-miterlimit:2;">
    <g transform="matrix(1.15205,0,0,1.15737,1.19779,-1.38192)">
        <path d="M5.043,17.034L1.979,17.034L1.979,2.058L14.106,2.058L14.106,6.055L17.169,6.055L17.169,21.032L5.043,21.032L5.043,17.034ZM10.077,4.858L10.077,4.058L4.014,4.058L4.014,4.858L10.077,4.858ZM11.088,7.359L11.088,6.559L4.014,6.559L4.014,7.359L11.088,7.359ZM9.319,9.861L9.319,9.061L4.014,9.061L4.014,9.861L9.319,9.861ZM12.098,14.863L12.098,14.063L4.014,14.063L4.014,14.863L12.098,14.863ZM11.088,12.362L11.088,11.562L4.014,11.562L4.014,12.362L11.088,12.362ZM6.053,17.034L6.053,20.044L16.159,20.044L16.159,7.044L14.106,7.044L14.106,17.034L6.053,17.034Z"/>
    </g>
</svg>
