<?xml version="1.0" encoding="UTF-8" standalone="no"?><!DOCTYPE svg PUBLIC "-//W3C//DTD SVG 1.1//EN" "http://www.w3.org/Graphics/SVG/1.1/DTD/svg11.dtd"><svg width="100%" height="100%" viewBox="0 0 50 50" version="1.1" xmlns="http://www.w3.org/2000/svg" xmlns:xlink="http://www.w3.org/1999/xlink" xml:space="preserve" xmlns:serif="http://www.serif.com/" style="fill-rule:evenodd;clip-rule:evenodd;stroke-linejoin:round;stroke-miterlimit:2;"><path d="M37.5,26.798l0,18.958l-31.25,0l0,-41.666l22.858,-0l8.392,8.392l0,10.566l2.171,0l0,-2.292l6.25,4.167l-6.25,4.167l0,-2.292l-2.171,0Zm-9.376,-14.262l0,1.042l8.333,-0l-0,-1.042l-7.29,0l-0,-7.292l-1.042,0l-0.001,7.292Zm9.326,10.512l-0,-2.292l-12.5,0l-0,8.334l12.5,-0l-0,-2.292l-8.283,0l-0,-3.75l8.283,0Z"/></svg>