<?xml version="1.0" encoding="UTF-8" standalone="no"?><!DOCTYPE svg PUBLIC "-//W3C//DTD SVG 1.1//EN" "http://www.w3.org/Graphics/SVG/1.1/DTD/svg11.dtd"><svg width="100%" height="100%" viewBox="0 0 50 50" version="1.1" xmlns="http://www.w3.org/2000/svg" xmlns:xlink="http://www.w3.org/1999/xlink" xml:space="preserve" xmlns:serif="http://www.serif.com/" style="fill-rule:evenodd;clip-rule:evenodd;stroke-linejoin:round;stroke-miterlimit:2;"><path d="M13.14,29.355c-0.788,-0.493 -1.533,-1.081 -2.218,-1.766c-4.878,-4.878 -4.878,-12.8 0,-17.678c4.878,-4.878 12.8,-4.878 17.678,0c1.248,1.249 2.177,2.697 2.787,4.242c1.757,-0.303 3.591,0.004 5.178,0.921c3.711,2.142 4.971,6.906 2.819,10.644l2.545,1.469l-5.707,2.122l-1.016,-6.003l2.498,1.442c1.612,-2.804 0.666,-6.375 -2.116,-7.981c-1.113,-0.643 -2.388,-0.886 -3.625,-0.73c0.748,3.385 0.077,7.022 -2.012,9.956l13.446,13.447l-2.946,2.946l-13.447,-13.446c-3.501,2.493 -8.002,2.966 -11.883,1.419c0.148,1.25 0.7,2.458 1.656,3.415c1.471,1.471 3.621,2.04 5.639,1.492l0.497,1.88c-2.691,0.73 -5.557,-0.029 -7.518,-1.99c-1.592,-1.592 -2.343,-3.708 -2.255,-5.801Zm2.497,-2.184c3.499,1.712 7.846,1.115 10.753,-1.792c3.659,-3.659 3.659,-9.599 0,-13.258c-3.659,-3.659 -9.599,-3.659 -13.258,-0c-3.659,3.659 -3.659,9.599 -0,13.258c0.272,0.272 0.556,0.523 0.851,0.755c0.364,-0.717 0.846,-1.389 1.444,-1.989l-2.078,-2.078l6.062,-0.572l-0.572,6.062l-2.04,-2.04c-0.493,0.496 -0.88,1.056 -1.162,1.654Z"/></svg>