<?xml version="1.0" encoding="UTF-8" standalone="no"?><!DOCTYPE svg PUBLIC "-//W3C//DTD SVG 1.1//EN" "http://www.w3.org/Graphics/SVG/1.1/DTD/svg11.dtd"><svg width="100%" height="100%" viewBox="0 0 50 50" version="1.1" xmlns="http://www.w3.org/2000/svg" xmlns:xlink="http://www.w3.org/1999/xlink" xml:space="preserve" xmlns:serif="http://www.serif.com/" style="fill-rule:evenodd;clip-rule:evenodd;stroke-linejoin:round;stroke-miterlimit:2;"><path d="M37.5,26.329l0,19.427l-31.25,0l0,-41.666l22.858,-0l8.392,8.392l0,11.035l8.421,-0l0,2.812l-8.421,0Zm-9.376,-13.793l0,1.042l8.333,-0l-0,-1.042l-7.29,0l-0,-7.292l-1.042,0l-0.001,7.292Zm9.326,10.981l-0,-2.761l-12.5,0l-0,8.334l12.5,-0l-0,-2.761l-3.596,0l0,1.719l-4.687,-3.125l4.687,-3.125l0,1.719l3.596,-0Z"/></svg>