<?xml version="1.0" encoding="UTF-8" standalone="no"?><!DOCTYPE svg PUBLIC "-//W3C//DTD SVG 1.1//EN" "http://www.w3.org/Graphics/SVG/1.1/DTD/svg11.dtd"><svg width="100%" height="100%" viewBox="0 0 50 50" version="1.1" xmlns="http://www.w3.org/2000/svg" xmlns:xlink="http://www.w3.org/1999/xlink" xml:space="preserve" xmlns:serif="http://www.serif.com/" style="fill-rule:evenodd;clip-rule:evenodd;stroke-linejoin:round;stroke-miterlimit:2;"><path d="M26.813,6.338l0.598,2.908c1.156,0.177 2.289,0.48 3.378,0.905l1.972,-2.22c1.103,0.502 2.155,1.109 3.14,1.814l-0.936,2.817c0.912,0.731 1.742,1.561 2.473,2.473l2.817,-0.936c0.705,0.985 1.312,2.037 1.814,3.14l-2.22,1.972c0.425,1.089 0.728,2.222 0.905,3.378l2.908,0.598c0.117,1.206 0.117,2.42 0,3.626l-2.908,0.598c-0.177,1.156 -0.48,2.289 -0.905,3.378l2.22,1.972c-0.502,1.103 -1.109,2.155 -1.814,3.14l-2.817,-0.936c-0.731,0.912 -1.561,1.742 -2.473,2.473l0.936,2.817c-0.985,0.705 -2.037,1.312 -3.14,1.814l-1.972,-2.22c-1.089,0.425 -2.222,0.728 -3.378,0.905l-0.598,2.908c-1.206,0.117 -2.42,0.117 -3.626,0l-0.598,-2.908c-1.156,-0.177 -2.289,-0.48 -3.378,-0.905l-1.972,2.22c-1.103,-0.502 -2.155,-1.109 -3.14,-1.814l0.936,-2.817c-0.912,-0.731 -1.742,-1.561 -2.473,-2.473l-2.817,0.936c-0.705,-0.985 -1.312,-2.037 -1.814,-3.14l2.22,-1.972c-0.425,-1.089 -0.728,-2.222 -0.905,-3.378l-2.908,-0.598c-0.117,-1.206 -0.117,-2.42 -0,-3.626l2.908,-0.598c0.177,-1.156 0.48,-2.289 0.905,-3.378l-2.22,-1.972c0.502,-1.103 1.109,-2.155 1.814,-3.14l2.817,0.936c0.731,-0.912 1.561,-1.742 2.473,-2.473l-0.936,-2.817c0.985,-0.705 2.037,-1.312 3.14,-1.814l1.972,2.22c1.089,-0.425 2.222,-0.728 3.378,-0.905l0.598,-2.908c1.206,-0.117 2.42,-0.117 3.626,-0Zm-1.813,14.912c2.07,-0 3.75,1.68 3.75,3.75c0,2.07 -1.68,3.75 -3.75,3.75c-2.07,0 -3.75,-1.68 -3.75,-3.75c-0,-2.07 1.68,-3.75 3.75,-3.75Z"/></svg>