<?xml version="1.0" encoding="UTF-8" standalone="no"?><!DOCTYPE svg PUBLIC "-//W3C//DTD SVG 1.1//EN" "http://www.w3.org/Graphics/SVG/1.1/DTD/svg11.dtd"><svg width="100%" height="100%" viewBox="0 0 50 50" version="1.1" xmlns="http://www.w3.org/2000/svg" xmlns:xlink="http://www.w3.org/1999/xlink" xml:space="preserve" xmlns:serif="http://www.serif.com/" style="fill-rule:evenodd;clip-rule:evenodd;stroke-linejoin:round;stroke-miterlimit:2;"><path d="M45.833,4.167l0,41.666l-41.666,0l-0,-41.666l41.666,-0Zm-37.5,18.75l4.167,-0l0,-10.417l10.417,-0l-0,-4.167l-14.584,0l0,14.584Zm18.75,-14.584l0,4.167l10.417,-0l-0,10.417l4.167,-0l-0,-14.584l-14.584,0Zm14.584,18.75l-4.167,0l-0,10.417l-10.417,0l0,4.167l14.584,-0l-0,-14.584Zm-18.75,14.584l-0,-4.167l-10.417,0l-0,-10.417l-4.167,0l0,14.584l14.584,-0Z"/></svg>