<?xml version="1.0" encoding="UTF-8" standalone="no"?><!DOCTYPE svg PUBLIC "-//W3C//DTD SVG 1.1//EN" "http://www.w3.org/Graphics/SVG/1.1/DTD/svg11.dtd"><svg width="100%" height="100%" viewBox="0 0 50 50" version="1.1" xmlns="http://www.w3.org/2000/svg" xmlns:xlink="http://www.w3.org/1999/xlink" xml:space="preserve" xmlns:serif="http://www.serif.com/" style="fill-rule:evenodd;clip-rule:evenodd;stroke-linejoin:round;stroke-miterlimit:2;"><path d="M7.813,7.805l4.166,0l0,0.008l8.341,0l0,-2.08l6.243,4.161l-6.243,4.161l0,-2.08l-8.341,-0l0,9.378l-4.166,0l-0,-13.548Zm34.381,0.008l-0,4.167l-0.008,0l-0,8.341l2.08,0l-4.161,6.242l-4.161,-6.242l2.08,0l0,-8.341l-9.378,0l-0,-4.167l13.548,0Zm-0.007,34.382l-4.166,-0l-0,-0.008l-8.341,-0l-0,2.08l-6.243,-4.161l6.243,-4.161l-0,2.08l8.341,0l-0,-9.378l4.166,-0l0,13.548Zm-34.381,-0.007l0,-4.166l0.008,-0l0,-8.341l-2.08,-0l4.161,-6.243l4.161,6.243l-2.08,-0l-0,8.341l9.378,-0l0,4.166l-13.548,0Z"/></svg>