<?xml version="1.0" encoding="UTF-8" standalone="no"?><!DOCTYPE svg PUBLIC "-//W3C//DTD SVG 1.1//EN" "http://www.w3.org/Graphics/SVG/1.1/DTD/svg11.dtd"><svg width="100%" height="100%" viewBox="0 0 50 50" version="1.1" xmlns="http://www.w3.org/2000/svg" xmlns:xlink="http://www.w3.org/1999/xlink" xml:space="preserve" xmlns:serif="http://www.serif.com/" style="fill-rule:evenodd;clip-rule:evenodd;stroke-linejoin:round;stroke-miterlimit:2;"><path d="M4.167,22.083l6.25,-6.25l12.5,0l5,5l16.666,0l1.25,1.25l0,22.5l-1.25,1.25l-39.166,0l-1.25,-1.25l-0,-22.5Zm8.333,-7.38l1.161,-1.161l12.5,-0l6.161,6.161l-3.244,-0l-5,-5l-11.578,-0Zm29.167,5.497l-14.434,-8.333l6.25,-10.825l14.434,8.333l-6.25,10.825Zm-0.763,-2.846l4.167,-7.216l-10.826,-6.25l-4.166,7.216l10.825,6.25Zm-2.886,-4.039l-0.488,0.845l-5.731,-3.309l0.488,-0.845l5.731,3.309Zm2.666,-1.31l-0.488,0.845l-7.163,-4.136l0.487,-0.845l7.164,4.136Zm2.667,-1.31l-0.488,0.845l-8.597,-4.963l0.488,-0.846l8.597,4.964Zm-16.255,0.752l-6.862,-1.839l2.157,-8.049l9.018,2.416l-4.313,7.472Zm0.847,-4.755l-5.031,-1.348l-0.161,0.604l5.03,1.348l0.162,-0.604Zm1.415,-1.257l-6.037,-1.617l-0.161,0.603l6.037,1.618l0.161,-0.604Zm-2.83,2.514l-4.025,-1.078l-0.162,0.604l4.025,1.078l0.162,-0.604Z"/></svg>