<svg viewBox="0 0 24 24" xmlns="http://www.w3.org/2000/svg" fill="currentColor">
  <g transform="matrix(1.08215,0,0,1.01718,-2.41557,0.315217)">
    <path d="M12.357,19.228L2.232,19.228L2.232,3.841L12.357,3.841L12.357,1.742L13.334,1.742L13.334,21.233L12.357,21.233L12.357,19.228ZM8.954,10.979L4.133,10.979L4.133,12.04L8.954,12.04L8.954,10.979ZM9.918,13.535L4.133,13.535L4.133,14.595L9.918,14.595L9.918,13.535ZM10.883,16.09L4.133,16.09L4.133,17.151L10.883,17.151L10.883,16.09ZM8.954,5.867L4.133,5.867L4.133,6.928L8.954,6.928L8.954,5.867ZM10.883,8.423L4.133,8.423L4.133,9.484L10.883,9.484L10.883,8.423ZM24.41,3.841L24.41,19.228L13.803,19.228L13.803,3.841L24.41,3.841ZM23.446,4.866L14.768,4.866L14.768,18.203L23.446,18.203L23.446,4.866ZM20.548,10.979L20.548,12.04L15.727,12.04L15.727,10.979L20.548,10.979ZM22.477,8.423L22.477,9.484L15.727,9.484L15.727,8.423L22.477,8.423ZM21.512,13.535L21.512,14.595L15.727,14.595L15.727,13.535L21.512,13.535ZM22.477,16.09L22.477,17.151L15.727,17.151L15.727,16.09L22.477,16.09ZM20.548,5.867L20.548,6.928L15.727,6.928L15.727,5.867L20.548,5.867Z"/>
  </g>
</svg>