<?xml version="1.0" encoding="UTF-8" standalone="no"?><!DOCTYPE svg PUBLIC "-//W3C//DTD SVG 1.1//EN" "http://www.w3.org/Graphics/SVG/1.1/DTD/svg11.dtd"><svg width="100%" height="100%" viewBox="0 0 50 50" version="1.1" xmlns="http://www.w3.org/2000/svg" xmlns:xlink="http://www.w3.org/1999/xlink" xml:space="preserve" xmlns:serif="http://www.serif.com/" style="fill-rule:evenodd;clip-rule:evenodd;stroke-linejoin:round;stroke-miterlimit:2;"><path d="M46.225,35.101c-1.692,3.665 -6.673,6.323 -12.547,6.323c-2.098,-0 -4.082,-0.339 -5.843,-0.942c-1.327,0.351 -2.874,0.553 -4.524,0.553c-1.565,-0 -3.036,-0.181 -4.316,-0.5c-1.597,0.571 -3.369,0.889 -5.233,0.889c-7.039,-0 -12.754,-4.531 -12.754,-10.111c-0,-4.974 4.54,-9.114 10.512,-9.955c0.161,-3.583 2.71,-6.658 6.354,-8.146c1.842,-2.78 5.151,-4.636 8.924,-4.636c5.776,0 10.466,4.351 10.466,9.709c0,0.545 -0.048,1.079 -0.141,1.599c6.578,0.122 11.869,4.246 11.869,9.308c0,2.242 -1.039,4.301 -2.767,5.909Zm-28.053,-22.006c1.422,-0.538 3,-0.838 4.661,-0.838c6.249,0 11.322,4.24 11.322,9.463c0,0.531 -0.052,1.051 -0.153,1.558c6.383,0.107 11.646,3.352 12.662,7.581c-0.559,-4.661 -5.616,-8.333 -11.818,-8.448c0.093,-0.52 0.142,-1.054 0.142,-1.599c-0,-5.359 -4.69,-9.709 -10.467,-9.709c-2.386,-0 -4.588,0.743 -6.349,1.992Zm12.469,17.349c-0.006,3.234 -2.629,5.854 -5.865,5.854c-1.029,-0 -2.04,-0.271 -2.932,-0.786l-0.977,1.693c1.189,0.686 2.537,1.047 3.909,1.047c4.315,0 7.814,-3.495 7.819,-7.808l2.96,-0l-3.91,-4.692l-3.909,4.692l2.905,-0Zm-13.298,-3.226c0.006,-3.234 2.629,-5.854 5.865,-5.854c1.029,0 2.04,0.271 2.932,0.786l0.977,-1.693c-1.189,-0.686 -2.537,-1.047 -3.909,-1.047c-4.315,-0 -7.814,3.495 -7.819,7.808l-2.96,0l3.91,4.692l3.909,-4.692l-2.905,0Z"/></svg>