<?xml version="1.0" encoding="UTF-8" standalone="no"?><!DOCTYPE svg PUBLIC "-//W3C//DTD SVG 1.1//EN" "http://www.w3.org/Graphics/SVG/1.1/DTD/svg11.dtd"><svg width="100%" height="100%" viewBox="0 0 50 50" version="1.1" xmlns="http://www.w3.org/2000/svg" xmlns:xlink="http://www.w3.org/1999/xlink" xml:space="preserve" xmlns:serif="http://www.serif.com/" style="fill-rule:evenodd;clip-rule:evenodd;stroke-linejoin:round;stroke-miterlimit:2;"><path d="M27.004,28.94c-4.88,3.475 -11.705,3.025 -16.082,-1.351c-4.878,-4.878 -4.878,-12.8 0,-17.678c4.878,-4.878 12.8,-4.878 17.678,0c4.376,4.377 4.826,11.202 1.351,16.082l13.446,13.447l-2.946,2.946l-13.447,-13.446Zm-13.872,-16.819c-3.659,3.659 -3.659,9.599 -0,13.258c3.659,3.659 9.599,3.659 13.258,0c3.659,-3.659 3.659,-9.599 0,-13.258c-3.659,-3.659 -9.599,-3.659 -13.258,-0Z"/></svg>