<?xml version="1.0" encoding="UTF-8" standalone="no"?><!DOCTYPE svg PUBLIC "-//W3C//DTD SVG 1.1//EN" "http://www.w3.org/Graphics/SVG/1.1/DTD/svg11.dtd"><svg width="100%" height="100%" viewBox="0 0 50 50" version="1.1" xmlns="http://www.w3.org/2000/svg" xmlns:xlink="http://www.w3.org/1999/xlink" xml:space="preserve" xmlns:serif="http://www.serif.com/" style="fill-rule:evenodd;clip-rule:evenodd;stroke-linejoin:round;stroke-miterlimit:2;"><path d="M45.585,12.672l1.526,1.554l-1.228,1.251l-1.745,-1.777c-2.061,1.225 -4.817,2.021 -7.875,2.148l0,2.883l-1.736,0l-0,-2.883c-2.971,-0.124 -5.657,-0.878 -7.697,-2.045l0.28,0.285l-2.202,2.243l-1.228,-1.251l1.995,-2.032c-1.738,-1.305 -2.78,-2.966 -2.78,-4.776l6.25,0c0,2.097 2.798,3.797 6.25,3.797c3.452,0 6.25,-1.7 6.25,-3.797l6.25,0c0,1.64 -0.855,3.159 -2.31,4.4Zm-34.456,3.47l2.884,0l-3.881,4.691l-3.882,-4.691l2.938,0c0.006,-4.314 3.479,-7.809 7.764,-7.809c1.362,0 2.701,0.362 3.881,1.048l-0.97,1.693c-0.885,-0.515 -1.889,-0.786 -2.911,-0.786c-3.213,0 -5.817,2.62 -5.823,5.854Zm27.742,13.549l-2.884,0l3.881,-4.691l3.882,4.691l-2.938,0c-0.006,4.314 -3.479,7.809 -7.764,7.809c-1.362,0 -2.701,-0.361 -3.881,-1.048l0.97,-1.692c0.885,0.514 1.889,0.785 2.911,0.785c3.213,0 5.817,-2.62 5.823,-5.854Zm-14.018,1.578c1.417,1.287 2.249,2.853 2.249,4.542c-0,4.381 -5.601,7.939 -12.5,7.939c-6.899,0 -12.5,-3.558 -12.5,-7.939c-0,-1.866 1.015,-3.583 2.714,-4.939l-1.93,-2.055l1.228,-1.307l2.202,2.344l-0.027,0.029c2.008,-1.137 4.596,-1.868 7.444,-1.993l0,-2.89l1.737,0l0,2.89c3.093,0.135 5.878,0.986 7.947,2.294l1.672,-1.781l1.228,1.307l-1.464,1.559Zm-10.251,-2.231c-4.006,-0 -7.259,3.035 -7.259,6.773c0,3.738 3.253,6.772 7.259,6.772c4.006,0 7.259,-3.034 7.259,-6.772c-0,-3.738 -3.253,-6.773 -7.259,-6.773Zm-0,3.127c1.89,-0 3.424,1.633 3.424,3.646c-0,2.012 -1.534,3.646 -3.424,3.646c-1.89,-0 -3.424,-1.634 -3.424,-3.646c-0,-2.013 1.534,-3.646 3.424,-3.646Z"/></svg>