<?xml version="1.0" encoding="UTF-8" standalone="no"?><!DOCTYPE svg PUBLIC "-//W3C//DTD SVG 1.1//EN" "http://www.w3.org/Graphics/SVG/1.1/DTD/svg11.dtd"><svg width="100%" height="100%" viewBox="0 0 50 50" version="1.1" xmlns="http://www.w3.org/2000/svg" xmlns:xlink="http://www.w3.org/1999/xlink" xml:space="preserve" xmlns:serif="http://www.serif.com/" style="fill-rule:evenodd;clip-rule:evenodd;stroke-linejoin:round;stroke-miterlimit:2;"><path d="M21.737,43.695c-4.976,-6.62 -13.894,-19.389 -13.894,-25.9c0,-9.469 7.688,-17.157 17.157,-17.157c9.469,0 17.157,7.688 17.157,17.157c-0,6.511 -8.918,19.28 -13.894,25.9c7.91,0.254 13.894,1.415 13.894,2.807c-0,1.578 -7.688,2.86 -17.157,2.86c-9.469,-0 -17.157,-1.282 -17.157,-2.86c0,-1.392 5.984,-2.553 13.894,-2.807Zm5.988,0.711c-1.633,2.151 -2.725,3.492 -2.725,3.492c0,-0 -1.092,-1.341 -2.725,-3.492c-5.795,0.209 -10.142,1.068 -10.142,2.096c-0,1.184 5.765,2.145 12.867,2.145c7.102,-0 12.867,-0.961 12.867,-2.145c0,-1.028 -4.347,-1.887 -10.142,-2.096Zm-2.725,-34.205c-2.367,0 -4.289,1.922 -4.289,4.289c-0,2.368 1.922,4.289 4.289,4.289c2.367,0 4.289,-1.921 4.289,-4.289c0,-2.367 -1.922,-4.289 -4.289,-4.289Z"/></svg>