<?xml version="1.0" encoding="UTF-8" standalone="no"?><!DOCTYPE svg PUBLIC "-//W3C//DTD SVG 1.1//EN" "http://www.w3.org/Graphics/SVG/1.1/DTD/svg11.dtd"><svg width="100%" height="100%" viewBox="0 0 50 50" version="1.1" xmlns="http://www.w3.org/2000/svg" xmlns:xlink="http://www.w3.org/1999/xlink" xml:space="preserve" xmlns:serif="http://www.serif.com/" style="fill-rule:evenodd;clip-rule:evenodd;stroke-linejoin:round;stroke-miterlimit:2;"><path id="icon-redo" d="M36.684,15.721l-5.284,3.05l13.466,6.659l0.967,-14.992l-4.684,2.705c-3.87,-5.592 -10.259,-8.976 -17.131,-8.976c-11.498,-0 -20.833,9.335 -20.833,20.833c0,11.498 9.335,20.833 20.833,20.833c7.443,0 14.321,-3.97 18.043,-10.416l-4.446,-2.567c-2.804,4.858 -7.987,7.85 -13.597,7.85c-8.665,0 -15.7,-7.035 -15.7,-15.7c-0,-8.665 7.035,-15.7 15.7,-15.7c5.037,-0 9.729,2.412 12.666,6.421Z"/></svg>