<?xml version="1.0" encoding="UTF-8" standalone="no"?><!DOCTYPE svg PUBLIC "-//W3C//DTD SVG 1.1//EN" "http://www.w3.org/Graphics/SVG/1.1/DTD/svg11.dtd"><svg width="100%" height="100%" viewBox="0 0 50 50" version="1.1" xmlns="http://www.w3.org/2000/svg" xmlns:xlink="http://www.w3.org/1999/xlink" xml:space="preserve" xmlns:serif="http://www.serif.com/" style="fill-rule:evenodd;clip-rule:evenodd;stroke-linejoin:round;stroke-miterlimit:2;"><path d="M27.111,33.295l-0,14.676l-25,0l-0,-33.333l20.856,0l-0,-10.51l25,0l-0,29.167l-20.856,-0Zm-5.43,6.336c0.394,0.033 0.725,-0.049 0.994,-0.247l0.269,-0.494c-1.237,-2.521 -2.348,-5.082 -3.333,-7.685c-0.986,-2.603 -2.321,-5.23 -4.006,-7.882c-0.519,-0.527 -1.165,-0.461 -1.935,0.198c-1.685,2.256 -3.141,4.612 -4.368,7.066c-1.228,2.455 -2.236,5.008 -3.025,7.66c0,0.363 0.108,0.676 0.323,0.939l0.538,0.247c0.394,0.033 0.716,-0.049 0.967,-0.247c0.377,-0.922 0.717,-1.857 1.022,-2.804c0.304,-0.947 0.654,-1.866 1.048,-2.755l8.065,-0.297c0.358,1.054 0.77,2.088 1.236,3.101c0.466,1.013 1.022,1.998 1.667,2.953l0.538,0.247Zm-4.248,-8.278l-6.236,0.297c1.756,-3.031 2.903,-5.074 3.441,-6.128c0.537,0.955 1.03,1.903 1.478,2.842c0.448,0.939 0.887,1.935 1.317,2.989Zm9.678,0.119l18.773,-0l-0,-25.521l-20.834,0l0,8.687l2.061,0l-0,16.834Zm2.408,-4.427c-0.205,-0.026 -0.384,-0.102 -0.538,-0.229c-0.153,-0.179 -0.217,-0.408 -0.192,-0.688l0.192,-0.382c0.896,-0.357 1.743,-0.816 2.543,-1.376c0.799,-0.561 1.487,-1.099 2.062,-1.615c0.576,-0.516 1.017,-1.003 1.325,-1.461c-1.037,-0.892 -1.903,-1.886 -2.601,-2.981c-0.697,-1.095 -1.295,-2.242 -1.794,-3.439l-2.801,-0l-0.384,-0.191c-0.153,-0.179 -0.217,-0.408 -0.192,-0.688l0.192,-0.382l0.422,-0.249l6.352,-0.114l-0,-2.14c0.025,-0.204 0.102,-0.382 0.23,-0.535c0.179,-0.153 0.409,-0.217 0.691,-0.191l0.383,0.191l0.192,0.382l0,2.293c1.331,0.051 2.671,0.095 4.02,0.133c1.35,0.039 2.677,0.166 3.982,0.383c0.153,0.178 0.217,0.407 0.192,0.687l-0.192,0.383c-0.358,0.203 -0.78,0.267 -1.267,0.191l-2.321,-0.115c-0.333,1.146 -0.742,2.28 -1.228,3.401c-0.487,1.121 -1.101,2.153 -1.842,3.095c0.358,0.51 0.773,0.93 1.247,1.261c0.473,0.332 0.908,0.647 1.305,0.946c0.396,0.3 0.77,0.551 1.122,0.755c0.352,0.204 0.796,0.471 1.334,0.802c0.153,0.179 0.217,0.408 0.192,0.688l-0.192,0.382c-0.205,0.179 -0.461,0.242 -0.768,0.191c-0.78,-0.407 -1.535,-0.878 -2.264,-1.413c-0.729,-0.535 -1.733,-1.357 -3.013,-2.465c-0.588,0.7 -1.413,1.445 -2.475,2.235c-1.062,0.79 -1.839,1.331 -2.331,1.624c-0.493,0.293 -1.021,0.503 -1.583,0.631Zm7.349,-8.082c0.767,-1.835 1.305,-3.21 1.612,-4.127l-6.333,-0.039c0.461,1.019 0.976,1.975 1.545,2.866c0.569,0.892 1.321,1.733 2.255,2.522l0.921,-1.222Zm-26.277,-9.339l2.786,0.746l-4.964,3.527l-2.535,-5.536l2.838,0.76c1.122,-4.165 5.382,-6.642 9.52,-5.533c1.316,0.353 2.516,1.048 3.478,2.016l-1.375,1.384c-0.722,-0.726 -1.622,-1.247 -2.609,-1.512c-3.103,-0.831 -6.297,1.025 -7.139,4.148Zm28.796,30.752l-2.786,-0.746l4.964,-3.527l2.535,5.536l-2.838,-0.76c-1.122,4.165 -5.382,6.642 -9.52,5.533c-1.317,-0.353 -2.516,-1.048 -3.479,-2.016l1.376,-1.384c0.722,0.726 1.621,1.247 2.609,1.512c3.103,0.831 6.297,-1.025 7.139,-4.148Z"/></svg>