<?xml version="1.0" encoding="UTF-8" standalone="no"?><!DOCTYPE svg PUBLIC "-//W3C//DTD SVG 1.1//EN" "http://www.w3.org/Graphics/SVG/1.1/DTD/svg11.dtd"><svg width="100%" height="100%" viewBox="0 0 50 50" version="1.1" xmlns="http://www.w3.org/2000/svg" xmlns:xlink="http://www.w3.org/1999/xlink" xml:space="preserve" xmlns:serif="http://www.serif.com/" style="fill-rule:evenodd;clip-rule:evenodd;stroke-linejoin:round;stroke-miterlimit:2;"><path d="M4.084,16.683l41.667,0l-0,29.134l-41.667,-0l0,-29.134Zm2.047,2.149l-0,24.902l29.166,-0l0,-24.902l-29.166,0Zm16.477,14.345l0,6.439l-3.788,0l0,-6.439l-6.439,-0l-0,-3.788l6.439,0l0,-6.439l3.788,-0l0,6.439l6.439,0l0,3.788l-6.439,-0Zm-18.48,-22.886l0,-3.75l31.272,-0l0,-2.292l10.417,4.167l-10.417,4.166l0,-2.291l-31.272,-0Z"/></svg>