<?xml version="1.0" encoding="UTF-8" standalone="no"?>
<!DOCTYPE svg PUBLIC "-//W3C//DTD SVG 1.1//EN" "http://www.w3.org/Graphics/SVG/1.1/DTD/svg11.dtd">
<svg width="100%" height="100%" viewBox="0 0 24 24" version="1.1" xmlns="http://www.w3.org/2000/svg" xmlns:xlink="http://www.w3.org/1999/xlink" xml:space="preserve" xmlns:serif="http://www.serif.com/" style="fill-rule:evenodd;clip-rule:evenodd;stroke-linejoin:round;stroke-miterlimit:2;">
    <g transform="matrix(1.14789,0,0,1.12963,-1.39304,-1.98478)">
        <path d="M18.443,10.928L19.417,10.928L20.379,11.89L20.379,21.58L19.415,22.544L3.919,22.544L2.956,21.58L2.956,11.901L3.929,10.928L4.892,10.928L4.892,8.992C4.892,5.252 7.928,2.216 11.668,2.216C15.407,2.216 18.443,5.252 18.443,8.992L18.443,10.928ZM10.298,15.768C10.414,16.096 10.645,16.37 10.942,16.541L10.458,19.64L12.877,19.64L12.393,16.541C12.69,16.37 12.921,16.096 13.037,15.768C13.09,15.616 13.119,15.453 13.119,15.284C13.119,14.482 12.469,13.832 11.668,13.832C10.866,13.832 10.216,14.482 10.216,15.284C10.216,15.453 10.245,15.616 10.298,15.768ZM16.507,10.928L16.507,8.992C16.507,6.321 14.339,4.152 11.668,4.152C8.996,4.152 6.828,6.321 6.828,8.992L6.828,10.928L16.507,10.928Z"/>
    </g>
</svg>
