<?xml version="1.0" encoding="UTF-8" standalone="no"?><!DOCTYPE svg PUBLIC "-//W3C//DTD SVG 1.1//EN" "http://www.w3.org/Graphics/SVG/1.1/DTD/svg11.dtd"><svg width="100%" height="100%" viewBox="0 0 50 50" version="1.1" xmlns="http://www.w3.org/2000/svg" xmlns:xlink="http://www.w3.org/1999/xlink" xml:space="preserve" xmlns:serif="http://www.serif.com/" style="fill-rule:evenodd;clip-rule:evenodd;stroke-linejoin:round;stroke-miterlimit:2;"><path d="M10.417,28.164l-5.22,0l-1.041,-1.041l-0,-18.75l1.041,-1.042l39.606,0l1.041,1.042l0,18.75l-1.041,1.041l-5.22,0c-0.042,8.013 -6.56,14.505 -14.583,14.505c-8.023,-0 -14.541,-6.492 -14.583,-14.505Zm14.583,-5.892c-0.69,0 -1.25,0.56 -1.25,1.25c0,0.69 0.56,1.25 1.25,1.25c0.69,0 1.25,-0.56 1.25,-1.25c-0,-0.69 -0.56,-1.25 -1.25,-1.25Zm-0.031,-4.882l-1.032,-0l0,4.166l2.083,0l0,-2.633c1.792,-0.466 3.115,-2.095 3.115,-4.033c0,-2.3 -1.867,-4.167 -4.167,-4.167c-2.022,0 -3.752,1.452 -4.103,3.443l1.641,0.29c0.211,-1.195 1.249,-2.066 2.462,-2.066c1.38,0 2.5,1.12 2.5,2.5c0,1.381 -1.119,2.5 -2.499,2.5Zm10.968,10.774l-8.823,0l-2.114,3.172l-2.114,-3.172l-8.823,0c0.042,6.001 4.927,10.859 10.937,10.859c6.01,0 10.895,-4.858 10.937,-10.859Z"/></svg>