<?xml version="1.0" encoding="UTF-8" standalone="no"?>
<!DOCTYPE svg PUBLIC "-//W3C//DTD SVG 1.1//EN" "http://www.w3.org/Graphics/SVG/1.1/DTD/svg11.dtd">
<svg width="100%" height="100%" viewBox="0 0 24 24" version="1.1" xmlns="http://www.w3.org/2000/svg" xmlns:xlink="http://www.w3.org/1999/xlink" xml:space="preserve" xmlns:serif="http://www.serif.com/" style="fill-rule:evenodd;clip-rule:evenodd;stroke-linejoin:round;stroke-miterlimit:2;">
    <g transform="matrix(0.357083,0.357083,-0.642978,0.642978,8.88998,7.49865)">
        <path d="M9.319,15.714L7.103,10.791L7.934,8.944L7.4,8.944C7.205,7.073 7.103,4.951 7.103,2.79C7.103,-4.003 8.096,-9.519 9.319,-9.519C10.542,-9.519 11.535,-4.003 11.535,2.79C11.535,4.951 11.433,7.073 11.238,8.944L10.704,8.944L11.535,10.791L9.319,15.714ZM9.319,15.714L31.723,3.272L33.123,4.05L10.719,16.492L9.319,15.714ZM9.319,10.483C9.013,10.483 8.765,10.621 8.765,10.791C8.765,10.96 9.013,11.098 9.319,11.098C9.625,11.098 9.873,10.96 9.873,10.791C9.873,10.621 9.625,10.483 9.319,10.483Z"/>
    </g>
</svg>
