<?xml version="1.0" encoding="UTF-8" standalone="no"?><!DOCTYPE svg PUBLIC "-//W3C//DTD SVG 1.1//EN" "http://www.w3.org/Graphics/SVG/1.1/DTD/svg11.dtd"><svg width="100%" height="100%" viewBox="0 0 50 50" version="1.1" xmlns="http://www.w3.org/2000/svg" xmlns:xlink="http://www.w3.org/1999/xlink" xml:space="preserve" xmlns:serif="http://www.serif.com/" style="fill-rule:evenodd;clip-rule:evenodd;stroke-linejoin:round;stroke-miterlimit:2;"><path d="M45.833,41.415l-41.666,0l-0,-12.871l6.25,-0l-0,-0.054c1.833,-2.486 4.185,-4.493 6.874,-5.825c1.693,2.678 4.516,4.433 7.709,4.433c3.193,-0 6.016,-1.755 7.709,-4.433c2.689,1.332 5.041,3.339 6.874,5.825l0,0.054l6.25,-0l0,12.871Zm-35.416,-12.067l-2.778,0l-0,11.263l2.778,-0l-0,-11.263Zm29.166,11.263l2.778,-0l0,-11.263l-2.778,0l0,11.263Zm-14.583,-32.026c4.599,-0 8.333,3.75 8.333,8.368c0,4.619 -3.734,8.369 -8.333,8.369c-4.599,0 -8.333,-3.75 -8.333,-8.369c-0,-4.618 3.734,-8.368 8.333,-8.368Z"/></svg>