<?xml version="1.0" encoding="UTF-8" standalone="no"?><!DOCTYPE svg PUBLIC "-//W3C//DTD SVG 1.1//EN" "http://www.w3.org/Graphics/SVG/1.1/DTD/svg11.dtd"><svg width="100%" height="100%" viewBox="0 0 50 50" version="1.1" xmlns="http://www.w3.org/2000/svg" xmlns:xlink="http://www.w3.org/1999/xlink" xml:space="preserve" xmlns:serif="http://www.serif.com/" style="fill-rule:evenodd;clip-rule:evenodd;stroke-linejoin:round;stroke-miterlimit:2;"><path d="M33.3,4.167l0,41.666l-29.133,0l-0,-41.666l29.133,-0Zm-2.149,2.046l-24.901,0l0,29.167l24.901,-0l0,-29.167Zm-14.344,16.478l-6.44,-0l0,-3.788l6.44,-0l-0,-6.44l3.787,0l0,6.44l6.44,-0l-0,3.788l-6.44,-0l0,6.439l-3.787,-0l-0,-6.439Zm22.886,-18.48l3.75,-0l-0,31.272l2.291,-0l-4.166,10.416l-4.167,-10.416l2.292,-0l-0,-31.272Z"/></svg>