<?xml version="1.0" encoding="UTF-8" standalone="no"?><!DOCTYPE svg PUBLIC "-//W3C//DTD SVG 1.1//EN" "http://www.w3.org/Graphics/SVG/1.1/DTD/svg11.dtd"><svg width="100%" height="100%" viewBox="0 0 50 50" version="1.1" xmlns="http://www.w3.org/2000/svg" xmlns:xlink="http://www.w3.org/1999/xlink" xml:space="preserve" xmlns:serif="http://www.serif.com/" style="fill-rule:evenodd;clip-rule:evenodd;stroke-linejoin:round;stroke-miterlimit:2;"><path id="icon-undo" d="M12.335,15.721l5.284,3.05l-13.467,6.659l-0.967,-14.992l4.685,2.705c3.869,-5.592 10.259,-8.976 17.13,-8.976c11.498,-0 20.833,9.335 20.833,20.833c0,11.498 -9.335,20.833 -20.833,20.833c-7.443,0 -14.321,-3.97 -18.042,-10.416l4.445,-2.567c2.805,4.858 7.988,7.85 13.597,7.85c8.665,0 15.7,-7.035 15.7,-15.7c0,-8.665 -7.035,-15.7 -15.7,-15.7c-5.036,-0 -9.729,2.412 -12.665,6.421Z"/></svg>